HIERARCHY
ROOT Hips
{
	OFFSET 0.000000 89.005402 0.000000
	CHANNELS 6 Xposition Yposition Zposition Xrotation Yrotation Zrotation
	JOINT Spine
	{
		OFFSET 0.116900 10.681000 0.373400
		CHANNELS 3 Xrotation Yrotation Zrotation
		JOINT Spine1
		{
			OFFSET 0.000000 13.840401 0.053500
			CHANNELS 3 Xrotation Yrotation Zrotation
			JOINT Spine2
			{
				OFFSET 0.000000 14.712700 -0.366200
				CHANNELS 3 Xrotation Yrotation Zrotation
				JOINT Neck
				{
					OFFSET 0.000000 35.415497 -3.314200
					CHANNELS 3 Xrotation Yrotation Zrotation
					JOINT Head
					{
						OFFSET 0.000000 16.899200 1.218300
						CHANNELS 3 Xrotation Yrotation Zrotation
						JOINT HeadTop_End
						{
							OFFSET 0.000000 22.206207 2.192500
							CHANNELS 3 Xrotation Yrotation Zrotation
							End Site
							{
								OFFSET 0.000000 22.314178 0.000000
							}
						}
					}
				}
				JOINT LeftShoulder
				{
					OFFSET 12.896400 26.716293 -4.548400
					CHANNELS 3 Xrotation Yrotation Zrotation
					JOINT LeftArm
					{
						OFFSET 19.027000 -4.857010 -1.718400
						CHANNELS 3 Xrotation Yrotation Zrotation
						JOINT LeftForeArm
						{
							OFFSET 24.179897 0.000000 0.000000
							CHANNELS 3 Xrotation Yrotation Zrotation
							JOINT LeftHand
							{
								OFFSET 27.156403 0.000000 0.000000
								CHANNELS 3 Xrotation Yrotation Zrotation
								JOINT LeftHandIndex1
								{
									OFFSET 16.441200 0.000000 0.000000
									CHANNELS 3 Xrotation Yrotation Zrotation
									JOINT LeftHandIndex2
									{
										OFFSET 4.821899 0.000000 0.000000
										CHANNELS 3 Xrotation Yrotation Zrotation
										JOINT LeftHandIndex3
										{
											OFFSET 6.386497 0.000000 0.000000
											CHANNELS 3 Xrotation Yrotation Zrotation
											JOINT LeftHandIndex4
											{
												OFFSET 5.188988 0.000000 0.000000
												CHANNELS 3 Xrotation Yrotation Zrotation
												End Site
												{
													OFFSET -0.178703 5.185913 0.000177
												}
											}
										}
									}
								}
								JOINT LeftHandThumb1
								{
									OFFSET 6.534897 -5.032593 5.900300
									CHANNELS 3 Xrotation Yrotation Zrotation
									JOINT LeftHandThumb2
									{
										OFFSET 3.818176 -2.204422 2.204423
										CHANNELS 3 Xrotation Yrotation Zrotation
										JOINT LeftHandThumb3
										{
											OFFSET 3.252098 -1.877594 1.877601
											CHANNELS 3 Xrotation Yrotation Zrotation
											JOINT LeftHandThumb4
											{
												OFFSET 5.251778 -3.032120 3.032117
												CHANNELS 3 Xrotation Yrotation Zrotation
												End Site
												{
													OFFSET 0.000023 6.780014 0.000000
												}
											}
										}
									}
								}
							}
						}
					}
				}
				JOINT RightShoulder
				{
					OFFSET -12.896300 26.716293 -4.548400
					CHANNELS 3 Xrotation Yrotation Zrotation
					JOINT RightArm
					{
						OFFSET -19.027000 -4.857010 -1.718400
						CHANNELS 3 Xrotation Yrotation Zrotation
						JOINT RightForeArm
						{
							OFFSET -24.179897 0.000000 0.000000
							CHANNELS 3 Xrotation Yrotation Zrotation
							JOINT RightHand
							{
								OFFSET -27.156403 0.000000 0.000000
								CHANNELS 3 Xrotation Yrotation Zrotation
								JOINT RightHandThumb1
								{
									OFFSET -6.591202 -4.852203 5.988100
									CHANNELS 3 Xrotation Yrotation Zrotation
									JOINT RightHandThumb2
									{
										OFFSET -3.818176 -2.204422 2.204423
										CHANNELS 3 Xrotation Yrotation Zrotation
										JOINT RightHandThumb3
										{
											OFFSET -3.252098 -1.877594 1.877601
											CHANNELS 3 Xrotation Yrotation Zrotation
											JOINT RightHandThumb4
											{
												OFFSET -5.251778 -3.032120 3.032117
												CHANNELS 3 Xrotation Yrotation Zrotation
												End Site
												{
													OFFSET -0.000023 6.780014 0.000000
												}
											}
										}
									}
								}
								JOINT RightHandIndex1
								{
									OFFSET -16.029404 0.000000 0.000000
									CHANNELS 3 Xrotation Yrotation Zrotation
									JOINT RightHandIndex2
									{
										OFFSET -5.213303 0.000000 0.000000
										CHANNELS 3 Xrotation Yrotation Zrotation
										JOINT RightHandIndex3
										{
											OFFSET -6.386528 0.000000 0.000000
											CHANNELS 3 Xrotation Yrotation Zrotation
											JOINT RightHandIndex4
											{
												OFFSET -5.189026 0.000000 0.000000
												CHANNELS 3 Xrotation Yrotation Zrotation
												End Site
												{
													OFFSET 0.236702 5.183624 0.001972
												}
											}
										}
									}
								}
							}
						}
					}
				}
			}
		}
	}
	JOINT LeftUpLeg
	{
		OFFSET 14.073000 -7.904099 -1.463000
		CHANNELS 3 Xrotation Yrotation Zrotation
		JOINT LeftLeg
		{
			OFFSET -0.109806 -34.073280 4.093200
			CHANNELS 3 Xrotation Yrotation Zrotation
			JOINT LeftFoot
			{
				OFFSET 0.109806 -29.899420 -6.319000
				CHANNELS 3 Xrotation Yrotation Zrotation
				JOINT LeftToeBase
				{
					OFFSET 1.551100 -14.988700 20.535801
					CHANNELS 3 Xrotation Yrotation Zrotation
					JOINT LeftToe_End
					{
						OFFSET 0.221200 0.570800 13.248301
						CHANNELS 3 Xrotation Yrotation Zrotation
						End Site
						{
							OFFSET 0.000000 13.262435 0.000000
						}
					}
				}
			}
		}
	}
	JOINT RightUpLeg
	{
		OFFSET -13.839300 -7.904099 -1.463000
		CHANNELS 3 Xrotation Yrotation Zrotation
		JOINT RightLeg
		{
			OFFSET 0.109694 -34.073219 4.093300
			CHANNELS 3 Xrotation Yrotation Zrotation
			JOINT RightFoot
			{
				OFFSET -0.109694 -29.899384 -6.319200
				CHANNELS 3 Xrotation Yrotation Zrotation
				JOINT RightToeBase
				{
					OFFSET -1.551100 -14.988700 20.535801
					CHANNELS 3 Xrotation Yrotation Zrotation
					JOINT RightToe_End
					{
						OFFSET -0.221200 0.570900 13.248299
						CHANNELS 3 Xrotation Yrotation Zrotation
						End Site
						{
							OFFSET 0.000000 13.262440 0.000000
						}
					}
				}
			}
		}
	}
}
MOTION
Frames: 9
Frame Time: 0.033333
3.356750 74.493652 -2.661817 17.157101 -45.134341 13.667162 15.764148 -0.928455 -2.435869 15.655164 -2.351357 -3.419416 3.682034 -1.665565 -4.011951 6.264075 5.049694 2.041085 -11.613549 20.366089 -1.970015 0.000003 -0.000001 0.000003 5.032423 -12.434132 8.898879 19.387687 -27.359766 -31.204805 73.995872 -98.434904 89.813572 -21.238118 -19.242330 -10.579584 2.980417 -2.013931 -21.844938 -0.129016 -1.155458 -26.100265 -0.251650 -1.382418 -28.836751 0.000001 0.000001 -0.000000 18.205639 -5.367897 12.722387 2.729567 16.257887 -9.017452 5.706562 8.483096 -0.820732 -0.000001 -0.000001 0.000001 -4.944348 26.021914 0.711270 2.132123 -41.805689 53.975047 -19.137201 39.046013 17.178568 -25.504089 39.971397 13.273171 55.149536 18.649551 -29.698308 -0.442566 -14.180534 7.313151 21.666991 -29.244490 9.142366 0.000002 0.000000 -0.000000 5.673417 7.585041 36.844202 1.050447 3.824480 68.900189 0.499587 3.026021 62.196447 -0.000001 0.000002 0.000001 -67.902852 29.384324 36.893175 29.822413 -20.749671 1.878828 15.773733 0.095616 -9.333256 -0.918899 -6.110461 0.929442 -0.000000 0.000001 -0.000000 -34.595940 0.251270 -25.903451 45.083746 1.991679 -5.713463 -19.650569 -6.422841 27.312297 0.528334 2.970031 1.471365 -0.000000 0.000003 -0.000000 
3.442578 74.513336 -1.939117 16.844782 -45.294584 13.213746 15.327552 -0.575583 -2.456130 14.809044 -1.727376 -3.378720 2.817682 -1.073146 -3.867250 6.137854 5.318642 1.784382 -11.242642 20.489586 -1.892362 0.000003 0.000001 -0.000001 4.435894 -14.052354 8.265016 13.775768 -21.385131 -35.660237 98.729749 -99.858561 112.433472 -21.808593 -17.716445 -11.162748 2.759997 -2.529295 -21.549450 -0.122797 -1.142869 -25.798794 -0.250106 -1.379608 -28.766708 -0.000002 -0.000000 -0.000001 18.749989 -6.034668 12.667202 2.791509 16.244189 -9.067558 5.706561 8.483100 -0.820732 -0.000001 0.000002 -0.000001 -4.902237 25.726766 0.619559 3.040338 -42.241739 54.806787 -18.962280 38.984951 17.165254 -24.686300 39.879589 13.783047 55.149543 18.649543 -29.698311 -0.442566 -14.180532 7.313149 21.666992 -29.244490 9.142363 -0.000001 -0.000001 0.000001 5.673415 7.585039 36.844202 1.050451 3.824474 68.900189 0.499592 3.026026 62.196440 -0.000002 -0.000002 -0.000002 -68.133999 29.151193 37.209464 31.759208 -20.802366 2.034114 14.292289 0.253402 -8.792264 -0.918899 -6.110462 0.929442 0.000000 0.000000 0.000000 -33.540170 -0.100423 -26.289612 43.990554 2.111728 -5.603529 -19.403367 -6.281107 27.795014 0.528334 2.970031 1.471365 0.000000 -0.000002 -0.000000 
3.502155 74.615868 -1.228903 15.902608 -45.539801 11.991885 14.993503 -0.224097 -2.468187 14.166436 -1.087863 -3.305738 2.157340 -0.471513 -3.685308 6.284184 5.539337 1.843518 -10.837025 20.728726 -2.053328 -0.000002 0.000000 0.000000 3.823520 -15.798629 7.925419 8.989970 -15.837143 -39.295899 116.106427 -102.726940 127.567826 -20.413012 -15.969836 -8.658584 2.326675 -2.934320 -20.198519 -0.096758 -1.088143 -24.495659 -0.221766 -1.325731 -27.463446 -0.000001 -0.000000 0.000001 18.974890 -6.582810 12.694904 2.550515 15.937210 -9.006873 5.706559 8.483093 -0.820732 -0.000000 0.000001 -0.000000 -4.895668 25.677171 0.610363 4.137953 -42.549237 56.014638 -18.846896 39.039644 17.209618 -23.775728 39.887577 13.941706 55.149539 18.649546 -29.698308 -0.442567 -14.180534 7.313151 21.666992 -29.244486 9.142362 -0.000000 -0.000001 0.000001 5.673413 7.585040 36.844206 1.050450 3.824473 68.900196 0.499590 3.026032 62.196440 0.000002 0.000000 0.000001 -68.127476 28.816151 37.864455 33.637319 -21.115859 2.172937 12.854699 0.390519 -8.227103 -0.918899 -6.110460 0.929442 0.000000 0.000003 0.000000 -31.882838 -0.911370 -26.374526 42.533210 2.248520 -5.462677 -19.081950 -5.996386 28.151398 0.528334 2.970026 1.471365 0.000000 0.000002 0.000000 
3.525284 74.684052 -0.509590 15.500226 -45.654040 11.389791 14.548158 0.110442 -2.474472 13.297135 -0.478124 -3.249085 1.271793 0.105257 -3.522940 6.793829 5.650056 1.910900 -10.445892 20.913107 -2.367535 -0.000000 0.000002 -0.000000 3.156618 -17.402999 7.361138 5.034338 -11.232248 -41.968569 130.316936 -107.237699 139.644228 -18.763365 -15.978242 -5.029041 1.773651 -3.298565 -18.008794 -0.056733 -0.996724 -22.349513 -0.177756 -1.235791 -25.317025 0.000003 0.000000 -0.000001 19.079152 -7.120513 12.749721 2.153444 15.431626 -8.912572 5.706562 8.483095 -0.820733 -0.000001 -0.000001 -0.000003 -4.878197 25.436729 0.590049 5.330237 -42.385125 57.173762 -18.857585 39.180390 17.280773 -22.689936 39.757087 13.671756 55.149543 18.649546 -29.698305 -0.442565 -14.180531 7.313150 21.666987 -29.244483 9.142364 0.000001 -0.000000 -0.000001 5.673410 7.585037 36.844206 1.050451 3.824476 68.900189 0.499586 3.026023 62.196440 -0.000001 -0.000002 -0.000001 -68.184064 28.624802 38.201467 35.241826 -21.252938 2.294428 11.514022 0.505631 -7.736053 -0.918899 -6.110460 0.929442 -0.000000 0.000001 -0.000000 -30.638391 -1.432733 -26.626890 41.224997 2.330328 -5.333661 -18.798113 -5.844332 28.569238 0.528334 2.970029 1.471365 -0.000000 0.000002 0.000000 
3.493456 74.674088 0.135381 15.251903 -45.726416 11.004269 14.051435 0.437468 -2.456372 12.320490 0.125942 -3.161734 0.280434 0.671072 -3.328877 7.441668 5.784140 1.863641 -10.199432 21.070724 -2.547478 -0.000001 0.000001 0.000000 2.453656 -18.714940 6.704868 1.736695 -7.481396 -44.245901 139.546543 -113.017829 147.507279 -18.199869 -15.229071 -2.882243 1.164470 -3.662647 -15.233933 -0.010833 -0.877976 -19.610501 -0.126403 -1.118903 -22.577744 -0.000002 0.000001 -0.000001 19.087343 -7.634348 12.822820 1.646191 14.786277 -8.802421 5.706560 8.483100 -0.820733 -0.000000 -0.000001 0.000000 -4.871486 25.199530 0.605049 6.456776 -42.140194 58.207678 -18.959219 39.503304 17.428380 -21.252200 39.382277 13.008441 55.149543 18.649553 -29.698308 -0.442567 -14.180534 7.313151 21.666989 -29.244483 9.142365 0.000001 0.000000 -0.000002 5.673416 7.585041 36.844206 1.050452 3.824479 68.900189 0.499592 3.026024 62.196440 -0.000001 0.000000 0.000000 -68.301427 28.428852 38.483444 36.781409 -21.339543 2.410564 10.253264 0.602632 -7.333432 -0.918899 -6.110461 0.929442 -0.000000 -0.000001 0.000000 -29.671400 -1.800300 -26.905218 40.306743 2.407080 -5.237952 -18.699192 -5.772660 28.956116 0.528334 2.970029 1.471365 0.000000 0.000001 0.000000 
3.387899 74.661049 0.671346 14.922261 -45.948943 10.727193 13.566152 0.763811 -2.451519 11.361814 0.734264 -3.119871 -0.690435 1.251771 -3.175339 7.756314 6.061638 1.663169 -9.772588 21.254722 -2.552825 0.000002 -0.000001 0.000001 1.726808 -19.850492 5.886994 -0.783644 -4.198485 -46.097380 144.643258 -118.934029 151.819341 -18.669926 -13.389476 -1.363961 0.555701 -4.051375 -12.126517 0.033802 -0.741835 -16.528856 -0.075182 -0.984943 -19.495771 -0.000000 0.000001 0.000001 19.023740 -8.111467 12.905689 1.074645 14.060294 -8.692106 5.706559 8.483094 -0.820733 0.000001 0.000002 -0.000001 -4.897599 24.770851 0.752551 7.203976 -41.564529 58.685313 -19.141433 39.924006 17.615913 -19.737059 38.653038 12.229227 55.149539 18.649551 -29.698305 -0.442566 -14.180534 7.313148 21.666991 -29.244486 9.142364 -0.000000 0.000001 0.000001 5.673415 7.585034 36.844206 1.050452 3.824476 68.900189 0.499589 3.026024 62.196440 -0.000001 -0.000001 -0.000001 -68.140132 28.358776 38.787565 38.034141 -21.335984 2.505016 9.104185 0.682311 -7.118894 -0.918899 -6.110464 0.929442 0.000000 0.000000 0.000000 -28.866866 -2.065286 -27.226686 39.681552 2.547916 -5.164785 -18.737089 -5.615528 29.228370 0.528334 2.970030 1.471365 0.000000 -0.000003 -0.000000 
3.176104 74.632561 1.103248 14.467497 -46.394477 10.424937 13.127734 1.094873 -2.465224 10.492559 1.360129 -3.128422 -1.569216 1.861558 -3.064064 7.925642 6.460775 1.285523 -9.494945 21.486259 -2.452916 -0.000002 0.000000 -0.000000 1.012714 -20.657168 5.032371 -2.863665 -1.426752 -47.333197 147.734820 -124.678956 154.645947 -19.788146 -10.793734 -0.590919 -0.004535 -4.467197 -8.937547 0.071822 -0.599268 -13.354674 -0.029789 -0.844578 -16.321295 -0.000002 0.000000 0.000000 18.912404 -8.539029 12.990480 0.484797 13.312775 -8.593548 5.706563 8.483092 -0.820731 -0.000000 0.000002 0.000001 -4.931538 24.447515 0.917710 7.663839 -40.839183 59.021297 -19.356013 40.458294 17.858737 -18.089058 37.730849 11.217992 55.149539 18.649550 -29.698308 -0.442567 -14.180533 7.313149 21.666991 -29.244490 9.142364 -0.000000 0.000000 -0.000002 5.673411 7.585039 36.844206 1.050451 3.824478 68.900189 0.499590 3.026026 62.196440 0.000003 -0.000001 -0.000000 -67.761788 28.275206 39.284605 39.147315 -21.252591 2.589119 7.987548 0.755947 -7.130491 -0.918899 -6.110460 0.929442 -0.000000 0.000000 0.000000 -28.207129 -2.286098 -27.472590 39.374114 2.778778 -5.116375 -18.944085 -5.327846 29.347120 0.528334 2.970029 1.471365 0.000000 0.000001 0.000000 
2.872074 74.582176 1.423645 13.941285 -46.922529 10.173904 12.751736 1.386858 -2.502497 9.743284 1.917708 -3.200846 -2.324467 2.419470 -3.025892 7.675737 7.033024 1.258418 -8.593797 22.036960 -2.960979 0.000001 0.000000 -0.000000 0.319494 -21.016475 4.060401 -4.612277 0.607596 -47.803333 149.749138 -129.992352 156.526161 -19.828388 -9.317605 0.508553 -0.479653 -4.889653 -5.915994 0.100330 -0.461984 -10.337952 0.006274 -0.709251 -13.304304 -0.000002 -0.000001 -0.000001 18.777139 -8.904465 13.069939 -0.077220 12.602910 -8.514061 5.706560 8.483098 -0.820732 0.000001 -0.000002 0.000001 -4.948746 24.270978 1.012171 7.774404 -39.872739 59.275278 -19.492709 40.844818 18.034833 -16.404661 37.326120 10.096633 55.149543 18.649550 -29.698308 -0.442564 -14.180537 7.313152 21.666991 -29.244490 9.142362 -0.000001 0.000000 -0.000000 5.673411 7.585039 36.844206 1.050452 3.824476 68.900189 0.499593 3.026029 62.196440 -0.000001 -0.000001 -0.000001 -67.208406 28.246666 39.829374 40.042667 -21.146592 2.655310 6.988332 0.823628 -7.325849 -0.918899 -6.110462 0.929442 0.000000 0.000001 -0.000000 -27.701979 -2.425154 -27.709495 39.437164 3.053481 -5.100835 -19.355849 -5.014238 29.350730 0.528334 2.970028 1.471365 -0.000000 0.000002 -0.000000 
2.448182 74.488190 1.634058 13.598187 -47.379636 10.147773 12.369650 1.642279 -2.537470 8.977944 2.415201 -3.292116 -3.092185 2.924225 -3.014743 7.662618 7.444002 0.932921 -7.956238 22.311890 -3.151834 0.000001 0.000000 0.000000 -0.331421 -21.078491 2.925824 -5.951307 2.377818 -47.738856 151.161512 -134.743090 158.033174 -18.273264 -8.716879 0.835624 -0.846731 -5.279121 -3.308957 0.119024 -0.342159 -7.728563 0.031918 -0.590998 -10.694819 -0.000002 0.000002 -0.000000 18.641784 -9.195187 13.137492 -0.564524 11.989446 -8.456381 5.706563 8.483097 -0.820734 0.000003 -0.000001 0.000001 -4.964486 24.190203 1.084691 7.848004 -38.820975 59.436914 -19.700646 41.315186 18.251440 -14.593700 37.238861 8.882347 55.149539 18.649546 -29.698305 -0.442563 -14.180533 7.313151 21.666992 -29.244486 9.142365 -0.000000 -0.000001 0.000001 5.673411 7.585040 36.844199 1.050451 3.824473 68.900196 0.499592 3.026027 62.196440 -0.000000 -0.000000 -0.000000 -66.677297 28.231774 40.324382 40.697853 -21.049518 2.701763 6.167339 0.884531 -7.694788 -0.918899 -6.110462 0.929442 -0.000000 0.000001 0.000000 -27.450851 -2.391054 -28.021944 39.792692 1.685775 -5.236172 -19.975040 -3.326674 30.044411 0.528334 2.970030 1.471365 0.000000 -0.000001 -0.000000 
